<svg width="474" height="201" fill="none" xmlns="http://www.w3.org/2000/svg"><path d="M100.494 171.418a27.957 27.957 0 002.947-2.707 100.793 100.793 0 0027.468-69.156V35.68l-29.751-3.903a31.879 31.879 0 01-20.66-11.583L66.618 3l-13.88 17.195a31.88 31.88 0 01-20.66 11.583L2.327 35.681v63.874a100.789 100.789 0 0027.468 69.156 27.76 27.76 0 002.947 2.707l33.876 26.901 33.876-26.901z" fill="#FCFCFC" stroke="#060606" stroke-width="3" stroke-miterlimit="10"/><path d="M124.34 41.46v58.08c0 24.125-9.115 47.079-25.667 64.625a21.884 21.884 0 01-2.249 2.068l-29.772 23.642-29.768-23.642a21.583 21.583 0 01-2.252-2.068c-16.552-17.546-25.668-40.5-25.668-64.624V41.46l24.007-3.149c9.845-1.289 18.7-6.255 24.938-13.98l8.743-10.833 8.744 10.833c6.238 7.725 15.093 12.691 24.938 13.98l24.006 3.149z" fill="#060606"/><path d="M42.27 64.48c-.108-.056-1.519-.776-3.482-2.04l3.482 2.04zm-22.915.826c.135 3.18.406 6.353.813 9.436l.67 4.055.536 3.256a43.009 43.009 0 015.9-7.503l-.284-6.762 6.77 1.327a46.11 46.11 0 015.369-3.18l-3.093-1.932-16.772-10.477c-.02.698-.038 1.428-.048 2.2a198.05 198.05 0 00.139 9.58zm36.826 33.498c-4.08-7.364-9.226-21.915-9.226-21.915l-.546 1.686a9.424 9.424 0 00.386 6.794c.444.98.997 2.085 1.668 3.235 2.13 3.632 7.718 10.2 7.718 10.2z" fill="#FCFCFC"/><path d="M42.27 64.48c-.108-.056-1.519-.776-3.482-2.04l3.482 2.04z" fill="#FCFCFC"/><path d="M117.734 90.39a45.092 45.092 0 00-2.718-7.03 77.17 77.17 0 00.688-2.665c.386-1.602.73-3.211 1.032-4.827a110.349 110.349 0 001.401-9.78c.316-3.28.528-6.547.674-9.841.066-1.648.108-3.295.111-4.953a74.448 74.448 0 00-.028-2.495c-.014-.417-.024-.834-.048-1.258-.021-.43-.042-.823-.091-1.313l-.267-2.388-2.155 1.22-26.69 15.117a59.024 59.024 0 00-9.817-2.989c-4.333-.928-8.754-1.404-13.174-1.525-4.42.121-8.841.598-13.175 1.525a59.024 59.024 0 00-9.817 2.99L16.97 45.06l-2.154-1.22-.268 2.388c-.048.49-.07.882-.09 1.313-.024.424-.035.841-.049 1.258-.02.838-.035 1.668-.027 2.495a130 130 0 00.11 4.953c.147 3.294.359 6.56.675 9.841.323 3.28.785 6.548 1.4 9.78a96.066 96.066 0 001.032 4.827c.216.893.442 1.779.689 2.665a45.06 45.06 0 00-2.718 7.03 46.178 46.178 0 00-1.87 12.897c-.01 4.344.574 8.67 1.668 12.844 1.099 4.177 2.704 8.198 4.716 11.989-1.842-3.878-3.263-7.947-4.166-12.121-.9-4.17-1.283-8.445-1.088-12.684a44.776 44.776 0 012.356-12.414 43.224 43.224 0 012.165-5.206c.153-.309.306-.611.47-.914a107.809 107.809 0 01-.908-4.364 93.417 93.417 0 01-.747-4.807 108.773 108.773 0 01-.834-9.675 197.267 197.267 0 01-.143-9.727c.025-1.619.07-3.235.15-4.84.038-.734.083-1.467.142-2.193l21.275 13.282 3.36 2.095.16-.07c.136-.058.275-.114.41-.166 3.709-1.522 7.594-2.582 11.542-3.246 4.097-.691 8.264-.956 12.424-.89 4.16-.066 8.326.199 12.424.89 3.947.664 7.833 1.724 11.54 3.246a10.073 10.073 0 01.57.236l3.361-2.095 21.275-13.282c.059.726.104 1.46.143 2.193.08 1.605.125 3.221.149 4.84.031 3.236-.014 6.495-.142 9.727a108.92 108.92 0 01-.834 9.675 93.75 93.75 0 01-.987 6.061c-.198.99-.438 2.12-.668 3.11.164.303.317.605.47.914a43.452 43.452 0 012.165 5.206 44.798 44.798 0 012.356 12.414c.194 4.239-.188 8.514-1.088 12.684-.904 4.174-2.325 8.243-4.167 12.121 2.012-3.791 3.618-7.812 4.716-11.989 1.095-4.174 1.679-8.5 1.668-12.844a46.184 46.184 0 00-1.869-12.897zM38.788 62.44l3.482 2.04c-.108-.056-1.519-.776-3.482-2.04zm52.246 2.04l3.482-2.04c-1.964 1.264-3.375 1.984-3.482 2.04z" fill="#FCFCFC"/><path d="M94.516 62.44c-1.964 1.265-3.375 1.984-3.482 2.04l3.482-2.04zm19.433 2.866c-.136 3.18-.407 6.353-.813 9.436l-.671 4.055-.535 3.256a42.97 42.97 0 00-5.901-7.503l.285-6.762-6.77 1.327a46.093 46.093 0 00-5.369-3.18l3.093-1.932 16.771-10.477c.021.698.038 1.428.049 2.2a198.05 198.05 0 01-.139 9.58zm-11.305 55.649c-4.848.236-6.979 2.957-6.979 2.957 2.013 1.303 4.379 2.958 6.388 6.627-8.872 8.164-19.757 14.078-35.402 14.078s-26.53-5.914-35.401-14.078c2.008-3.669 4.375-5.324 6.387-6.627 0 0-2.13-2.721-6.978-2.957-4.852-.236-9.585-11.239-5.442-21.769 1.89-5.32 5.324-10.172 5.324-10.172l-.108 13.488c-.118 7.808 4.72 14.314 9.376 15.179 4.125.765 10.13-.038 15.336-8.91l9.112 6.033c1.536 1.063 1.654 2.839 1.654 2.839h-7.096l7.836 8.518 7.837-8.518H67.39s.119-1.776 1.655-2.839l9.111-6.033c4.028 7.023 11.212 9.675 15.337 8.91 4.656-.865 8.736-5.758 9.143-15.371l.125-13.296s3.433 4.852 5.324 10.172c4.142 10.53-.591 21.533-5.442 21.769z" fill="#FCFCFC"/><path d="M100.368 90.196c.354 5.946.406 13.31-.744 17.112-1.421 6.609-7.19 8.309-11.624 6.356-4.438-1.953-7.955-7.142-7.955-7.142l2.544-2.335s1.192 1.981 3.586 3.579c2.395 1.599 6.683 1.7 6.683 1.7s2.102-2.058 3.079-5.429c.977-3.37.532-4.674.532-4.674l-5.495-.243 5.703-3.833-.125-2.315 3.816-2.776zm-11.978-.932c-.936-.503-1.881-1.209-2.788-2.043-.233.448-.487.91-.761 1.38-2.096 3.58-7.545 9.998-7.715 10.2 2.075-3.747 4.424-9.352 6.234-13.954-1.101-1.337-2.053-2.773-2.734-4.1 0 0 1.563-.296 3.798 1.348 1.167-3.061 1.925-5.21 1.925-5.21l.546 1.686a9.449 9.449 0 01-.038 5.929c2.06 2.721 1.532 4.764 1.532 4.764zm6.126-26.824c-1.964 1.265-3.375 1.984-3.482 2.04l3.482-2.04zM32.918 90.196c-.354 5.946-.407 13.31.744 17.112 1.421 6.609 7.19 8.309 11.624 6.356 4.438-1.953 7.955-7.142 7.955-7.142l-2.544-2.335s-1.192 1.981-3.586 3.579c-2.395 1.599-6.683 1.7-6.683 1.7s-2.102-2.058-3.079-5.429c-.977-3.37-.532-4.674-.532-4.674l5.495-.243-5.703-3.833.125-2.315-3.816-2.776z" fill="#FCFCFC"/><path d="M66.653 132.885c-2.127 0-4.65.32-6.471 1.025-1.776.688-2.84 1.599-2.84 1.599l.817-.977c.667-.868 2.033-1.779 3.107-2.245 1.324-.573 3.892-1.275 5.387-1.275v1.873z" fill="#060606"/><path d="M66.652 132.885c2.127 0 4.65.32 6.471 1.025 1.776.688 2.84 1.599 2.84 1.599l-.817-.977c-.668-.868-2.033-1.779-3.107-2.245-1.324-.573-3.892-1.275-5.387-1.275v1.873zm140.589-26.906c.355 1.419.532 3.192.532 5.319 0 2.039-.177 3.813-.532 5.32.355 1.418.532 3.191.532 5.319 0 2.039-.177 3.812-.532 5.319h-5.319c.355 1.419.532 3.192.532 5.32 0 2.039-.177 3.812-.532 5.319h-31.916c-.355-1.507-.532-3.28-.532-5.319 0-2.128.177-3.901.532-5.32h-5.319c-.355-1.507-.532-3.28-.532-5.319 0-2.128.177-3.901.532-5.319h10.638c.355 1.418.532 3.191.532 5.319 0 2.039-.177 3.812-.532 5.319h21.278c-.355-1.507-.532-3.28-.532-5.319 0-2.128.177-3.901.532-5.319-.355-1.507-.532-3.281-.532-5.32 0-2.127.177-3.9.532-5.319h-26.597c-.355-1.507-.532-3.28-.532-5.319 0-2.128.177-3.901.532-5.32h-5.319c-.355-1.507-.532-3.28-.532-5.319 0-2.128.177-3.9.532-5.32-.355-1.506-.532-3.28-.532-5.319 0-2.127.177-3.9.532-5.319h5.319c-.355-1.507-.532-3.28-.532-5.32 0-2.127.177-3.9.532-5.319h31.916c.355 1.419.532 3.192.532 5.32 0 2.039-.177 3.812-.532 5.319h5.319c.355 1.418.532 3.192.532 5.32 0 2.038-.177 3.812-.532 5.319h-10.638c-.355-1.507-.532-3.28-.532-5.32 0-2.127.177-3.9.532-5.319h-21.278c.355 1.418.532 3.192.532 5.32 0 2.038-.177 3.812-.532 5.319.355 1.418.532 3.191.532 5.319 0 2.04-.177 3.812-.532 5.32h26.597c.355 1.418.532 3.19.532 5.319 0 2.039-.177 3.812-.532 5.319h5.319zm53.246-31.916c.354 1.418.532 3.192.532 5.32 0 2.038-.178 3.812-.532 5.319.354 1.418.532 3.191.532 5.319 0 2.04-.178 3.812-.532 5.32.354 1.418.532 3.19.532 5.319 0 2.039-.178 3.812-.532 5.319.354 1.419.532 3.192.532 5.319 0 2.039-.178 3.813-.532 5.32.354 1.418.532 3.191.532 5.319 0 2.039-.178 3.812-.532 5.319.354 1.419.532 3.192.532 5.32 0 2.039-.178 3.812-.532 5.319h-10.639c-.355-1.507-.532-3.28-.532-5.319 0-2.128.177-3.901.532-5.32-.355-1.507-.532-3.28-.532-5.319 0-2.128.177-3.901.532-5.319-.355-1.507-.532-3.281-.532-5.32 0-2.127.177-3.9.532-5.319h-21.277c.354 1.419.532 3.192.532 5.319 0 2.039-.178 3.813-.532 5.32.354 1.418.532 3.191.532 5.319 0 2.039-.178 3.812-.532 5.319.354 1.419.532 3.192.532 5.32 0 2.039-.178 3.812-.532 5.319h-10.639c-.355-1.507-.532-3.28-.532-5.319 0-2.128.177-3.901.532-5.32-.355-1.507-.532-3.28-.532-5.319 0-2.128.177-3.901.532-5.319-.355-1.507-.532-3.281-.532-5.32 0-2.127.177-3.9.532-5.319-.355-1.507-.532-3.28-.532-5.319 0-2.128.177-3.901.532-5.32-.355-1.507-.532-3.28-.532-5.319 0-2.128.177-3.9.532-5.32-.355-1.506-.532-3.28-.532-5.319 0-2.127.177-3.9.532-5.319-.355-1.507-.532-3.28-.532-5.32 0-2.127.177-3.9.532-5.319h10.639c.354 1.419.532 3.192.532 5.32 0 2.039-.178 3.812-.532 5.319.354 1.418.532 3.192.532 5.32 0 2.038-.178 3.812-.532 5.319.354 1.418.532 3.191.532 5.319 0 2.04-.178 3.812-.532 5.32h21.277c-.355-1.508-.532-3.28-.532-5.32 0-2.128.177-3.9.532-5.32-.355-1.506-.532-3.28-.532-5.319 0-2.127.177-3.9.532-5.319-.355-1.507-.532-3.28-.532-5.32 0-2.127.177-3.9.532-5.319h10.639c.354 1.419.532 3.192.532 5.32 0 2.039-.178 3.812-.532 5.319zm45.266 53.193c.355 1.419.532 3.192.532 5.32 0 2.039-.177 3.812-.532 5.319h-26.597c-.354-1.507-.532-3.28-.532-5.319 0-2.128.178-3.901.532-5.32h7.979c-.354-1.507-.532-3.28-.532-5.319 0-2.128.178-3.901.532-5.319-.354-1.507-.532-3.281-.532-5.32 0-2.127.178-3.9.532-5.319-.354-1.507-.532-3.28-.532-5.319 0-2.128.178-3.901.532-5.32-.354-1.507-.532-3.28-.532-5.319 0-2.128.178-3.9.532-5.32-.354-1.506-.532-3.28-.532-5.319 0-2.127.178-3.9.532-5.319h-7.979c-.354-1.507-.532-3.28-.532-5.32 0-2.127.178-3.9.532-5.319h26.597c.355 1.419.532 3.192.532 5.32 0 2.039-.177 3.812-.532 5.319h-7.979c.355 1.418.532 3.192.532 5.32 0 2.038-.177 3.812-.532 5.319.355 1.418.532 3.191.532 5.319 0 2.04-.177 3.812-.532 5.32.355 1.418.532 3.19.532 5.319 0 2.039-.177 3.812-.532 5.319.355 1.419.532 3.192.532 5.319 0 2.039-.177 3.813-.532 5.32.355 1.418.532 3.191.532 5.319 0 2.039-.177 3.812-.532 5.319h7.979zm61.224 0c.355 1.419.532 3.192.532 5.32 0 2.039-.177 3.812-.532 5.319h-37.235c-.355-1.507-.532-3.28-.532-5.319 0-2.128.177-3.901.532-5.32-.355-1.507-.532-3.28-.532-5.319 0-2.128.177-3.901.532-5.319-.355-1.507-.532-3.281-.532-5.32 0-2.127.177-3.9.532-5.319-.355-1.507-.532-3.28-.532-5.319 0-2.128.177-3.901.532-5.32-.355-1.507-.532-3.28-.532-5.319 0-2.128.177-3.9.532-5.32-.355-1.506-.532-3.28-.532-5.319 0-2.127.177-3.9.532-5.319-.355-1.507-.532-3.28-.532-5.32 0-2.127.177-3.9.532-5.319h10.639c.354 1.419.532 3.192.532 5.32 0 2.039-.178 3.812-.532 5.319.354 1.418.532 3.192.532 5.32 0 2.038-.178 3.812-.532 5.319.354 1.418.532 3.191.532 5.319 0 2.04-.178 3.812-.532 5.32.354 1.418.532 3.19.532 5.319 0 2.039-.178 3.812-.532 5.319.354 1.419.532 3.192.532 5.319 0 2.039-.178 3.813-.532 5.32.354 1.418.532 3.191.532 5.319 0 2.039-.178 3.812-.532 5.319h26.596zm53.246 0c.354 1.419.532 3.192.532 5.32 0 2.039-.178 3.812-.532 5.319h-37.236c-.354-1.507-.532-3.28-.532-5.319 0-2.128.178-3.901.532-5.32-.354-1.507-.532-3.28-.532-5.319 0-2.128.178-3.901.532-5.319-.354-1.507-.532-3.281-.532-5.32 0-2.127.178-3.9.532-5.319-.354-1.507-.532-3.28-.532-5.319 0-2.128.178-3.901.532-5.32-.354-1.507-.532-3.28-.532-5.319 0-2.128.178-3.9.532-5.32-.354-1.506-.532-3.28-.532-5.319 0-2.127.178-3.9.532-5.319-.354-1.507-.532-3.28-.532-5.32 0-2.127.178-3.9.532-5.319h10.639c.355 1.419.532 3.192.532 5.32 0 2.039-.177 3.812-.532 5.319.355 1.418.532 3.192.532 5.32 0 2.038-.177 3.812-.532 5.319.355 1.418.532 3.191.532 5.319 0 2.04-.177 3.812-.532 5.32.355 1.418.532 3.19.532 5.319 0 2.039-.177 3.812-.532 5.319.355 1.419.532 3.192.532 5.319 0 2.039-.177 3.813-.532 5.32.355 1.418.532 3.191.532 5.319 0 2.039-.177 3.812-.532 5.319h26.597zm53.245-31.916c.355 1.419.532 3.192.532 5.32 0 2.039-.177 3.812-.532 5.319.355 1.419.532 3.192.532 5.319 0 2.039-.177 3.813-.532 5.32h-5.319c.354 1.418.532 3.191.532 5.319 0 2.039-.178 3.812-.532 5.319h-5.32c.355 1.419.532 3.192.532 5.32 0 2.039-.177 3.812-.532 5.319h-31.916c-.354-1.507-.532-3.28-.532-5.319 0-2.128.178-3.901.532-5.32-.354-1.507-.532-3.28-.532-5.319 0-2.128.178-3.901.532-5.319-.354-1.507-.532-3.281-.532-5.32 0-2.127.178-3.9.532-5.319-.354-1.507-.532-3.28-.532-5.319 0-2.128.178-3.901.532-5.32-.354-1.507-.532-3.28-.532-5.319 0-2.128.178-3.9.532-5.32-.354-1.506-.532-3.28-.532-5.319 0-2.127.178-3.9.532-5.319-.354-1.507-.532-3.28-.532-5.32 0-2.127.178-3.9.532-5.319h31.916c.355 1.419.532 3.192.532 5.32 0 2.039-.177 3.812-.532 5.319h5.32c.354 1.418.532 3.192.532 5.32 0 2.038-.178 3.812-.532 5.319h5.319c.355 1.418.532 3.191.532 5.319 0 2.04-.177 3.812-.532 5.32zm-10.639 21.278c-.354-1.507-.532-3.281-.532-5.32 0-2.127.178-3.9.532-5.319-.354-1.507-.532-3.28-.532-5.319 0-2.128.178-3.901.532-5.32-.354-1.507-.532-3.28-.532-5.319 0-2.128.178-3.9.532-5.32h-5.319c-.355-1.506-.532-3.28-.532-5.319 0-2.127.177-3.9.532-5.319h-15.958c.355 1.418.532 3.192.532 5.32 0 2.038-.177 3.812-.532 5.319.355 1.418.532 3.191.532 5.319 0 2.04-.177 3.812-.532 5.32.355 1.418.532 3.19.532 5.319 0 2.039-.177 3.812-.532 5.319.355 1.419.532 3.192.532 5.319 0 2.039-.177 3.813-.532 5.32.355 1.418.532 3.191.532 5.319 0 2.039-.177 3.812-.532 5.319h15.958c-.355-1.507-.532-3.28-.532-5.319 0-2.128.177-3.901.532-5.319h5.319z" fill="#060606"/></svg>